<svg xmlns="http://www.w3.org/2000/svg" viewBox="0 0 900 300"><defs><linearGradient id="g3" x1="0" x2="1"><stop offset="0" stop-color="#0b57d0"/><stop offset="1" stop-color="#7c3aed"/></linearGradient><style>.b{fill:none;stroke:url(#g3);stroke-width:3}.bx{fill:#fff;fill-opacity:.85;stroke:url(#g3);stroke-width:2;rx:12}</style></defs><rect x="40" y="60" width="160" height="70" class="bx"/><text x="120" y="100" text-anchor="middle" font-family="Inter" font-size="13">Azure DevOps</text><rect x="240" y="60" width="160" height="70" class="bx"/><text x="320" y="100" text-anchor="middle" font-family="Inter" font-size="13">Pipelines</text><rect x="440" y="40" width="180" height="60" class="bx"/><text x="530" y="75" text-anchor="middle" font-family="Inter" font-size="13">Databricks</text><rect x="440" y="120" width="180" height="60" class="bx"/><text x="530" y="155" text-anchor="middle" font-family="Inter" font-size="13">Fabric</text><rect x="660" y="80" width="190" height="80" class="bx"/><text x="755" y="120" text-anchor="middle" font-family="Inter" font-size="13">OneLake/Delta + BI</text><path d="M200,95 C220,95 230,95 240,95" class="b"/><path d="M400,95 C420,95 430,70 440,70" class="b"/><path d="M400,95 C420,95 430,150 440,150" class="b"/><path d="M620,100 C640,100 650,120 660,120" class="b"/></svg>