<svg width="1000" height="360" viewBox="0 0 1000 360" xmlns="http://www.w3.org/2000/svg">
  <defs>
    <linearGradient id="g" x1="0" x2="1"><stop offset="0%" stop-color="#22d3ee"/><stop offset="100%" stop-color="#7c3aed"/></linearGradient>
    <style>.b{fill:none;stroke:url(#g);stroke-width:3}.bx{fill:#fff;fill-opacity:.7;stroke:url(#g);stroke-width:2;rx:14}</style>
  </defs>
  <rect x="40" y="60" width="170" height="70" class="bx"/><text x="125" y="100" text-anchor="middle" font-family="Inter" font-size="13">Planning Space</text>
  <rect x="260" y="40" width="200" height="60" class="bx"/><text x="360" y="75" text-anchor="middle" font-family="Inter" font-size="13">OData/REST</text>
  <rect x="260" y="120" width="200" height="60" class="bx"/><text x="360" y="155" text-anchor="middle" font-family="Inter" font-size="13">Historic Refresh</text>
  <path d="M210,95 C230,95 240,70 260,70" class="b"/>
  <path d="M210,95 C230,95 240,140 260,150" class="b"/>
  <rect x="520" y="60" width="180" height="70" class="bx"/><text x="610" y="100" text-anchor="middle" font-family="Inter" font-size="13">Databricks + Delta</text>
  <rect x="740" y="60" width="200" height="70" class="bx"/><text x="840" y="95" text-anchor="middle" font-family="Inter" font-size="13">BI (Tableau/Power BI)</text>
  <path d="M460,70 C490,70 500,95 520,95" class="b"/>
  <path d="M700,95 C720,95 730,95 740,95" class="b"/>
  <rect x="520" y="160" width="420" height="60" class="bx"/><text x="730" y="195" text-anchor="middle" font-family="Inter" font-size="13">Observability: logs, retries, re-run safety</text>
</svg>