<svg width="1000" height="420" viewBox="0 0 1000 420" xmlns="http://www.w3.org/2000/svg">
  <defs>
    <linearGradient id="g" x1="0" x2="1"><stop offset="0%" stop-color="#7c3aed"/><stop offset="100%" stop-color="#22d3ee"/></linearGradient>
    <style>.b{fill:none;stroke:url(#g);stroke-width:3}.bx{fill:#fff;fill-opacity:.7;stroke:url(#g);stroke-width:2;rx:14}</style>
  </defs>
  <rect x="30" y="60" width="200" height="80" class="bx"/>
  <text x="130" y="105" text-anchor="middle" font-family="Inter" font-size="14">Riteq (Source)</text>
  <rect x="290" y="60" width="220" height="80" class="bx"/>
  <text x="400" y="95" text-anchor="middle" font-family="Inter" font-size="14">Fabric Data Factory</text>
  <text x="400" y="115" text-anchor="middle" font-family="Inter" font-size="12">Orchestration • Control Table</text>
  <rect x="580" y="40" width="180" height="60" class="bx"/><text x="670" y="75" text-anchor="middle" font-family="Inter" font-size="13">Raw (OneLake)</text>
  <rect x="580" y="120" width="180" height="60" class="bx"/><text x="670" y="155" text-anchor="middle" font-family="Inter" font-size="13">Silver (Cleansed)</text>
  <rect x="580" y="200" width="180" height="60" class="bx"/><text x="670" y="235" text-anchor="middle" font-family="Inter" font-size="13">Gold (Curated)</text>
  <rect x="820" y="60" width="150" height="80" class="bx"/>
  <text x="895" y="95" text-anchor="middle" font-family="Inter" font-size="13">Dayforce</text><text x="895" y="115" text-anchor="middle" font-family="Inter" font-size="12">Employee/Schedule</text>
  <path d="M230,100 C260,100 280,100 290,100" class="b"/>
  <path d="M510,100 C540,100 560,70 580,70" class="b"/>
  <path d="M510,100 C540,100 560,150 580,150" class="b"/>
  <path d="M510,100 C540,100 560,230 580,230" class="b"/>
  <path d="M760,70 C790,70 800,100 820,100" class="b"/>
  <rect x="290" y="200" width="220" height="70" class="bx"/>
  <text x="400" y="225" text-anchor="middle" font-family="Inter" font-size="14">Validation & Error Engine</text>
  <text x="400" y="245" text-anchor="middle" font-family="Inter" font-size="12">16 categories • CSV exports</text>
  <path d="M670,260 C670,300 400,300 400,270" class="b"/>
  <rect x="820" y="200" width="150" height="70" class="bx"/>
  <text x="895" y="230" text-anchor="middle" font-family="Inter" font-size="13">UAT/Reports</text>
</svg>